# xmcd
#
# Track frame offsets:
#	150
#	19452
#	36875
#	54002
#	77955
#	101237
#	124095
#	143520
#	162235
#	179530
#	195715
#	214092
#
# Disc length: 3111 seconds
#
# Revision: 0
# Processed by: cddbd v1.5.2PL0 Copyright (c) Steve Scherf et al.
# Submitted via: EasyCDDAExtractor 4.6.9.1
#
DISCID=a60c250c
DTITLE=Great Train Robbery - Texas Highway
DYEAR=1995
DGENRE=Southern Rock
TTITLE0=Texas Highway
TTITLE1=I Don't Dance
TTITLE2=Whatever it Takes
TTITLE3=She Couldn't Tell Me Why
TTITLE4=My Paradise
TTITLE5=Gone So Long
TTITLE6=Whispers in the Night
TTITLE7=Wild Child
TTITLE8=Worst Part of a Man
TTITLE9=She Got the Fire
TTITLE10=Love Hangover
TTITLE11=All American Blue Jean Girl
EXTD=
EXTT0=
EXTT1=
EXTT2=
EXTT3=
EXTT4=
EXTT5=
EXTT6=
EXTT7=
EXTT8=
EXTT9=
EXTT10=
EXTT11=
PLAYORDER=
